#!OML:ASF F:\VICON\USERDATA\INSTALL\rory3\rory3.ASF
:FULLY-SPECIFIED
:DEGREES
63
root 1.239012757783501 17.947533281264718 44.90621599557133 -3.914699238373315 1.734736495186261 -5.440802485145525
lfemur -14.970495813311665 -2.601208837153377 -17.701373474897782
ltibia 22.190288420585542
lfoot -8.877951654916194 -3.5421513604071113
ltoes -16.04976005680416
rfemur -6.143990309564743 1.9813219551287173 29.852063434719767
rtibia 47.283453435825265
rfoot -7.819380663740377 -11.604902744027246
rtoes 4.437143218627367
lowerback 10.371408674763138 0.5490463944540596 3.5302303051578354
upperback -0.2459005466306256 1.8951119611011205 1.9325969275571044
thorax -5.929307535316526 0.924126730592364 -0.7764644824642295
lowerneck -16.297605014991976 -3.8778179189266204 -1.6407012708813515
upperneck 21.632277479954848 -5.49003250293632 2.0025313022599436
head 9.73447333338667 -2.437958033602409 0.23890481793436724
lclavicle -2.4831469443737386e-15 -2.7283621242757216e-15
lhumerus -31.122403990282514 2.882125182943183 82.13129520235542
lradius 28.469529896840736
lwrist 10.434804528221317
lhand -29.780437166919732 18.1174313681664
lfingers nan
lthumb -2.7309770119526875 48.76071405195282
rclavicle -2.5829976880642876e-15 -2.801454038645275e-15
rhumerus -27.731593083437893 -16.58963002152636 -76.52821771643605
rradius 32.44255331288304
rwrist 1.3804915768718486
rhand -17.539839854909147 22.363623926715725
rfingers nan
rthumb 8.679018968656752 -7.5013248716746626
64
root 1.2325790649346136 17.930045974464623 45.323070800023935 -4.171096126528793 2.1641163801933025 -4.115508787452248
lfemur -12.71887682689219 -2.9705070891091716 -19.576322421690772
ltibia 21.36754188419325
lfoot -9.485724502228841 -4.415616133222515
ltoes -13.65502006346573
rfemur -7.940935909578824 0.9055668020867889 27.838951565562745
rtibia 50.71004960402898
rfoot -7.935228141436823 -11.151273309537416
rtoes 5.342350812199394
lowerback 10.387162032348957 0.3204999248833761 2.3249126091108847
upperback -0.18662347977450983 1.3377635238919665 1.7370415806484794
thorax -5.925671461497376 0.6879454201742408 -0.2610725744327005
lowerneck -16.370542769612467 -3.8755719743307906 -1.648454490411236
upperneck 21.560053973516982 -5.495468817606414 2.138863589633778
head 9.720514368170491 -2.4299663195127588 0.2857616708239966
lclavicle -2.4895228752317403e-15 -2.730973625453627e-15
lhumerus -30.147166521215187 2.3355805586612384 81.94316500406725
lradius 28.90991423121317
lwrist 9.644919364307913
lhand -29.790175236151335 17.864143324676217
lfingers nan
lthumb -2.6657857904033526 48.70476184246056
rclavicle -2.5881306233242788e-15 -2.8019738709514366e-15
rhumerus -28.416315840197015 -16.81875984669114 -77.33595342683725
rradius 31.88879288165657
rwrist 2.267823338458176
rhand -17.556091812108683 22.58430281617128
rfingers nan
rthumb 8.708635940083255 -7.127136642323293
65
root 1.235613192755138 17.90875814526579 46.442187604261804 -4.304530797603414 2.671299073888787 -2.9376712019706135
lfemur -10.552978029749248 -3.39141591502864 -21.300073881412306
ltibia 21.87601503209757
lfoot -10.206993841936503 -4.002572382830938
ltoes -12.236146414600132
rfemur -10.717682588516546 -0.29931309318866894 25.625646974192424
rtibia 54.39172780983314
rfoot -8.167540915282395 -10.317889801012642
rtoes 5.789078259449294
lowerback 10.438470764746137 0.07702418430577182 1.2412853422157761
upperback -0.13043864721217674 0.7283987573021591 1.535436308773127
thorax -5.951796780960381 0.39594276009203305 0.2359897801588724
lowerneck -16.46616510352488 -3.8507444538248343 -1.634575290610256
upperneck 21.471187641613476 -5.46349748402395 2.238131899100816
head 9.707142715534708 -2.4103066285776364 0.3249912803877021
lclavicle -2.499257137977319e-15 -2.7348562514078204e-15
lhumerus -29.185065801741164 1.6934846008078153 81.73948567421195
lradius 29.230947739644773
lwrist 8.624409280357114
lhand -29.665123911573385 18.061486182486373
lfingers nan
lthumb -2.579393464874899 48.80135511953725
rclavicle -2.593319840436666e-15 -2.800508734079923e-15
rhumerus -29.18505392997931 -17.233386788560093 -78.0562157852375
rradius 31.286167915444466
rwrist 3.556118411727655
rhand -17.607506993499367 22.792808353534458
rfingers nan
rthumb 8.705576362948506 -6.8049077596102725
66
root 1.236733922732252 17.885893370572038 47.928240593517216 -4.379216248272449 3.0606909270570943 -1.5015452979543142
lfemur -8.282378266210722 -3.8038152219744608 -23.159076653106098
ltibia 22.854312506886185
lfoot -10.47927315199675 -3.363658675482841
ltoes -11.825135426895637
rfemur -14.006766773956034 -1.375693801024727 23.45117990564198
rtibia 57.72017351103533
rfoot -8.446134538720605 -9.271731995449997
rtoes 5.782952395952122
lowerback 10.50784175069199 -0.23470796625929188 -0.08848512416526899
upperback -0.07393008825300992 -0.01570701643192085 1.266592665232181
thorax -5.998291333565243 0.04363928349224161 0.8868594063763927
lowerneck -16.61567834635429 -3.7973928976367444 -1.6133936827900284
upperneck 21.40150723105579 -5.384398299000561 2.2868035448142203
head 9.70235626268632 -2.3774839752699806 0.35406951635537603
lclavicle -2.508330577122439e-15 -2.7382350567040427e-15
lhumerus -28.25333074389903 0.9306249729858345 81.5268469187586
lradius 29.459321178965368
lwrist 7.720378426032246
lhand -29.707976275833452 18.02016236422944
lfingers nan
lthumb -2.5783309844826245 48.82689227660789
rclavicle -2.6001632584010084e-15 -2.7998435738009514e-15
rhumerus -29.963038626953836 -17.80105894016543 -78.62347768543142
rradius 30.71223001058358
rwrist 4.556723071062559
rhand -17.6496467843452 22.820934836150606
rfingers nan
rthumb 8.673653861961984 -6.751201320988106
